<svg width="432" height="432" viewBox="0 0 432 432" fill="none" xmlns="http://www.w3.org/2000/svg">
<path d="M230.446 284.341C226.467 279.731 219.598 278.853 213.4 278.294C207.264 277.536 205.442 277.077 200.772 280.988C196.124 284.9 193.317 290.807 193.276 296.774C193.234 301.983 195.16 306.972 197.066 311.841C203.118 327.308 209.17 342.814 215.222 358.281C216.269 341.956 220.499 325.831 227.661 311.003C229.734 306.693 232.079 302.462 233.064 297.832C234.09 293.182 233.587 287.993 230.446 284.341Z" fill="#1E1E1C"/>
<path d="M304.635 149.979C306.402 127.842 310.651 108.966 313.947 86.709C314.523 82.8304 313.431 72.945 307.812 71.8511C306.74 71.6323 300.068 83.3873 297.745 84.6603C287.302 90.3687 292.404 77.7982 278.288 77.7982C275.012 77.7783 270.266 81.1397 269.849 75.9484C269.452 71.0754 277.354 65.5459 271.855 61.0508C260.954 67.5747 241.755 69.5438 241.636 85.6946L239.154 81.0204C231.966 81.3386 224.223 96.2363 216.976 97.8275C214.057 98.464 201.191 87.9223 199.325 89.0361C195.91 91.1047 193.825 111.81 192.197 115.669C183.66 135.877 170.813 157.518 167.22 178.681C166.088 185.523 166.843 196.104 164.738 202.071C164.083 203.981 159.04 207.999 157.59 210.485C152.468 219.236 147.345 240.022 144.565 250.583C138.45 274.014 139.443 275.645 131.322 298.359C131.362 302.894 141.091 293.566 140.912 291.199C144.029 293.804 143.454 299.572 148.358 298.837C151.872 298.299 159.596 290.562 161.74 290.025C164.381 289.369 165.711 292.412 167.676 292.253C169.721 292.114 178.636 287.042 180.026 285.271C187.631 265.938 187.869 269.459 197.895 251.22L241.239 247.003C243.423 245.909 243.879 249.987 244.098 251.438C246.401 267.768 245.706 297.404 246.798 313.714C246.977 316.419 248.307 327.22 249.994 327.319C255.554 322.744 265.084 324.395 269.353 318.369C271.199 315.783 270.921 314.53 272.53 312.461C273.979 310.611 275.865 306.872 276.858 305.281C278.109 303.252 273.304 295.117 279.36 292.293C279.459 302.974 280.73 304.664 291.59 302.118C294.032 300.408 292.464 242.826 292.742 236.939C292.901 233.677 294.171 216.492 294.727 215.577C295.541 214.224 296.296 206.686 297.864 204.538L304.635 149.979ZM240.345 86.9874L237.148 98.6629C233.753 95.0628 233.654 85.6747 240.345 86.9874ZM256.745 186.02C256.05 191.927 252.774 197.477 247.949 200.878C243.145 204.259 241.477 203.603 235.778 202.211C231.609 201.335 227.102 200.261 223.707 197.815C222.396 196.9 221.265 195.786 220.351 194.414C220.192 194.155 220.053 193.916 219.914 193.678C217.81 189.839 217.969 184.986 219.339 180.769C220.788 176.274 223.449 172.336 225.871 168.298C234.21 154.355 239.968 138.841 242.708 122.77C243.661 126.509 244.594 130.228 245.527 133.968C245.944 135.559 246.341 137.15 246.758 138.741C249.439 149.383 252.139 160.044 254.819 170.705C256.07 175.737 257.341 180.888 256.745 186.02ZM284.681 99.9557C281.286 97.1115 283.132 92.1191 282.775 88.2803H286.607C286.23 92.1191 288.096 97.1115 284.681 99.9557Z" fill="#1E1E1C"/>
</svg>
